<svg xmlns="http://www.w3.org/2000/svg" width="53" height="53" fill="none">
    <circle cx="26.5" cy="26.5" r="26.5" fill="#1F232F"/>
    <path fill="#D74D67" fill-rule="evenodd"
          d="M49.728 39.266A26.381 26.381 0 0 0 53 26.5C53 11.864 41.136 0 26.5 0S0 11.864 0 26.5c0 14.094 11.002 25.618 24.887 26.452l-9.741-19.938c-3.394-6.947-.514-15.33 6.433-18.724l.294-.144c6.947-3.394 15.33-.514 18.725 6.433l9.13 18.687Z"
          clip-rule="evenodd"/>
    <ellipse cx="26.945" cy="25.219" fill="#fff" rx="13.132" ry="11.938" transform="rotate(-30.214 26.945 25.219)"/>
    <ellipse cx="26.707" cy="24.203" fill="#0DBE70" rx="8.345" ry="6.948" transform="rotate(-30.214 26.707 24.203)"/>
    <path fill="#EF8F00" fill-rule="evenodd"
          d="m32.425 18.304-3.677 4.463 5.87-.88c.561 2.998-1.145 6.417-4.414 8.32-3.983 2.32-8.777 1.512-10.708-1.804-1.93-3.316-.267-7.884 3.715-10.204 3.177-1.85 6.87-1.71 9.214.105Z"
          clip-rule="evenodd"/>
</svg>